<mxfile host="Electron" modified="2024-08-18T16:40:34.806Z" agent="Mozilla/5.0 (Windows NT 10.0; Win64; x64) AppleWebKit/537.36 (KHTML, like Gecko) draw.io/24.4.8 Chrome/124.0.6367.207 Electron/30.0.6 Safari/537.36" etag="_KW32y_pi7Qxnu9WueRC" version="24.4.8" type="device">
  <diagram name="Page-1" id="AD_yQm_pDDxPwsSowb2C">
    <mxGraphModel dx="938" dy="659" grid="1" gridSize="10" guides="1" tooltips="1" connect="1" arrows="1" fold="1" page="0" pageScale="1" pageWidth="1169" pageHeight="827" math="0" shadow="0">
      <root>
        <mxCell id="0" />
        <mxCell id="1" parent="0" />
        <mxCell id="NBFTY5YNdQ-I9GaCww9j-3" style="edgeStyle=orthogonalEdgeStyle;rounded=0;orthogonalLoop=1;jettySize=auto;html=1;" parent="1" source="NBFTY5YNdQ-I9GaCww9j-1" target="NBFTY5YNdQ-I9GaCww9j-2" edge="1">
          <mxGeometry relative="1" as="geometry" />
        </mxCell>
        <mxCell id="NBFTY5YNdQ-I9GaCww9j-1" value="Client" style="rounded=0;whiteSpace=wrap;html=1;" parent="1" vertex="1">
          <mxGeometry x="-160" y="170" width="120" height="60" as="geometry" />
        </mxCell>
        <mxCell id="NBFTY5YNdQ-I9GaCww9j-5" value="" style="edgeStyle=orthogonalEdgeStyle;rounded=0;orthogonalLoop=1;jettySize=auto;html=1;" parent="1" source="NBFTY5YNdQ-I9GaCww9j-2" target="NBFTY5YNdQ-I9GaCww9j-4" edge="1">
          <mxGeometry relative="1" as="geometry" />
        </mxCell>
        <mxCell id="pwQmf8iL3hCYE9_n5Uv4-17" value="" style="edgeStyle=orthogonalEdgeStyle;rounded=0;orthogonalLoop=1;jettySize=auto;html=1;" edge="1" parent="1" source="NBFTY5YNdQ-I9GaCww9j-2" target="pwQmf8iL3hCYE9_n5Uv4-16">
          <mxGeometry relative="1" as="geometry" />
        </mxCell>
        <mxCell id="NBFTY5YNdQ-I9GaCww9j-2" value="File Service" style="rounded=0;whiteSpace=wrap;html=1;" parent="1" vertex="1">
          <mxGeometry x="60" y="170" width="120" height="60" as="geometry" />
        </mxCell>
        <mxCell id="NBFTY5YNdQ-I9GaCww9j-7" value="" style="edgeStyle=orthogonalEdgeStyle;rounded=0;orthogonalLoop=1;jettySize=auto;html=1;" parent="1" source="NBFTY5YNdQ-I9GaCww9j-4" target="NBFTY5YNdQ-I9GaCww9j-6" edge="1">
          <mxGeometry relative="1" as="geometry" />
        </mxCell>
        <mxCell id="NBFTY5YNdQ-I9GaCww9j-4" value="Upload Queue" style="sketch=0;aspect=fixed;pointerEvents=1;shadow=0;dashed=0;html=1;strokeColor=none;labelPosition=center;verticalLabelPosition=bottom;verticalAlign=top;align=center;fillColor=#00188D;shape=mxgraph.azure.queue_generic" parent="1" vertex="1">
          <mxGeometry x="250" y="180" width="133.33" height="40" as="geometry" />
        </mxCell>
        <mxCell id="pwQmf8iL3hCYE9_n5Uv4-10" value="" style="edgeStyle=orthogonalEdgeStyle;rounded=0;orthogonalLoop=1;jettySize=auto;html=1;" edge="1" parent="1" source="NBFTY5YNdQ-I9GaCww9j-6" target="pwQmf8iL3hCYE9_n5Uv4-9">
          <mxGeometry relative="1" as="geometry" />
        </mxCell>
        <mxCell id="NBFTY5YNdQ-I9GaCww9j-6" value="Preprocessor" style="rounded=0;whiteSpace=wrap;html=1;" parent="1" vertex="1">
          <mxGeometry x="450" y="170" width="120" height="60" as="geometry" />
        </mxCell>
        <mxCell id="NBFTY5YNdQ-I9GaCww9j-8" value="1. Generate DAG" style="text;html=1;align=center;verticalAlign=middle;whiteSpace=wrap;rounded=0;" parent="1" vertex="1">
          <mxGeometry x="440" y="130" width="140" height="20" as="geometry" />
        </mxCell>
        <mxCell id="NBFTY5YNdQ-I9GaCww9j-9" value="DAG Scheduler" style="rounded=0;whiteSpace=wrap;html=1;" parent="1" vertex="1">
          <mxGeometry x="830" y="170" width="120" height="60" as="geometry" />
        </mxCell>
        <mxCell id="NBFTY5YNdQ-I9GaCww9j-14" style="edgeStyle=orthogonalEdgeStyle;rounded=0;orthogonalLoop=1;jettySize=auto;html=1;entryX=0.5;entryY=0;entryDx=0;entryDy=0;dashed=1;dashPattern=12 12;" parent="1" source="NBFTY5YNdQ-I9GaCww9j-11" target="NBFTY5YNdQ-I9GaCww9j-9" edge="1">
          <mxGeometry relative="1" as="geometry" />
        </mxCell>
        <mxCell id="NBFTY5YNdQ-I9GaCww9j-11" value="&lt;div style=&quot;&quot;&gt;&lt;span style=&quot;background-color: initial;&quot;&gt;1. Use External Database as State holder&lt;/span&gt;&lt;/div&gt;&lt;div&gt;2. Schedule the task ( not execute it ) on tasks queue&lt;/div&gt;&lt;div&gt;3. Listen to task completion to schedule next set of tasks ( including the input they expect from prev task , only in sequential tasks )&lt;/div&gt;&lt;div&gt;4. Push all parallel tasks simultaneously&lt;/div&gt;" style="text;html=1;align=left;verticalAlign=middle;whiteSpace=wrap;rounded=0;" parent="1" vertex="1">
          <mxGeometry x="760" y="-200" width="260" height="110" as="geometry" />
        </mxCell>
        <mxCell id="NBFTY5YNdQ-I9GaCww9j-26" style="edgeStyle=orthogonalEdgeStyle;rounded=0;orthogonalLoop=1;jettySize=auto;html=1;entryX=0.5;entryY=0;entryDx=0;entryDy=0;exitX=1;exitY=0.51;exitDx=0;exitDy=0;exitPerimeter=0;" parent="1" source="NBFTY5YNdQ-I9GaCww9j-15" target="NBFTY5YNdQ-I9GaCww9j-19" edge="1">
          <mxGeometry relative="1" as="geometry">
            <Array as="points">
              <mxPoint x="1410" y="18" />
            </Array>
          </mxGeometry>
        </mxCell>
        <mxCell id="NBFTY5YNdQ-I9GaCww9j-35" value="Task Events" style="edgeLabel;html=1;align=center;verticalAlign=middle;resizable=0;points=[];" parent="NBFTY5YNdQ-I9GaCww9j-26" vertex="1" connectable="0">
          <mxGeometry x="-0.2643" y="-1" relative="1" as="geometry">
            <mxPoint as="offset" />
          </mxGeometry>
        </mxCell>
        <mxCell id="NBFTY5YNdQ-I9GaCww9j-15" value="Task Queue" style="sketch=0;aspect=fixed;pointerEvents=1;shadow=0;dashed=0;html=1;strokeColor=none;labelPosition=center;verticalLabelPosition=bottom;verticalAlign=top;align=center;fillColor=#00188D;shape=mxgraph.azure.queue_generic" parent="1" vertex="1">
          <mxGeometry x="1060" y="-2.5" width="133.33" height="40" as="geometry" />
        </mxCell>
        <mxCell id="NBFTY5YNdQ-I9GaCww9j-132" style="edgeStyle=orthogonalEdgeStyle;rounded=0;orthogonalLoop=1;jettySize=auto;html=1;entryX=0.241;entryY=-0.001;entryDx=0;entryDy=0;entryPerimeter=0;" parent="1" source="NBFTY5YNdQ-I9GaCww9j-16" target="pwQmf8iL3hCYE9_n5Uv4-8" edge="1">
          <mxGeometry relative="1" as="geometry">
            <Array as="points">
              <mxPoint x="1018" y="108" />
              <mxPoint x="1018" y="523" />
              <mxPoint x="1018" y="523" />
            </Array>
            <mxPoint x="1035.6999999999998" y="462.8840781250001" as="targetPoint" />
          </mxGeometry>
        </mxCell>
        <mxCell id="NBFTY5YNdQ-I9GaCww9j-16" value="Worker Queue" style="sketch=0;aspect=fixed;pointerEvents=1;shadow=0;dashed=0;html=1;strokeColor=none;labelPosition=center;verticalLabelPosition=bottom;verticalAlign=top;align=center;fillColor=#00188D;shape=mxgraph.azure.queue_generic" parent="1" vertex="1">
          <mxGeometry x="1060" y="87.5" width="133.33" height="40" as="geometry" />
        </mxCell>
        <mxCell id="NBFTY5YNdQ-I9GaCww9j-17" value="Failure Queue" style="sketch=0;aspect=fixed;pointerEvents=1;shadow=0;dashed=0;html=1;strokeColor=none;labelPosition=center;verticalLabelPosition=bottom;verticalAlign=top;align=center;fillColor=#00188D;shape=mxgraph.azure.queue_generic" parent="1" vertex="1">
          <mxGeometry x="1060" y="182.5" width="133.33" height="40" as="geometry" />
        </mxCell>
        <mxCell id="NBFTY5YNdQ-I9GaCww9j-18" style="edgeStyle=orthogonalEdgeStyle;rounded=0;orthogonalLoop=1;jettySize=auto;html=1;entryX=0;entryY=0.5;entryDx=0;entryDy=0;entryPerimeter=0;" parent="1" source="NBFTY5YNdQ-I9GaCww9j-9" target="NBFTY5YNdQ-I9GaCww9j-15" edge="1">
          <mxGeometry relative="1" as="geometry" />
        </mxCell>
        <mxCell id="NBFTY5YNdQ-I9GaCww9j-19" value="Task Scheduler" style="rounded=0;whiteSpace=wrap;html=1;" parent="1" vertex="1">
          <mxGeometry x="1350" y="170" width="120" height="60" as="geometry" />
        </mxCell>
        <mxCell id="NBFTY5YNdQ-I9GaCww9j-42" style="edgeStyle=orthogonalEdgeStyle;rounded=0;orthogonalLoop=1;jettySize=auto;html=1;entryX=1;entryY=0.5;entryDx=0;entryDy=0;dashed=1;dashPattern=8 8;" parent="1" source="NBFTY5YNdQ-I9GaCww9j-23" target="NBFTY5YNdQ-I9GaCww9j-19" edge="1">
          <mxGeometry relative="1" as="geometry" />
        </mxCell>
        <mxCell id="NBFTY5YNdQ-I9GaCww9j-23" value="&lt;div style=&quot;&quot;&gt;1. Listen to task and send them on the worker partition based on priority&lt;/div&gt;&lt;div style=&quot;&quot;&gt;2. Listen to failures and success and execute appropriate retry policies, logging and monitoring methods in failures&lt;/div&gt;&lt;div style=&quot;&quot;&gt;3. Send final result to DAG Scheduler to update state of the video processing based on the status&lt;/div&gt;" style="text;html=1;align=left;verticalAlign=middle;whiteSpace=wrap;rounded=0;" parent="1" vertex="1">
          <mxGeometry x="1470" y="25" width="190" height="110" as="geometry" />
        </mxCell>
        <mxCell id="NBFTY5YNdQ-I9GaCww9j-29" style="edgeStyle=orthogonalEdgeStyle;rounded=0;orthogonalLoop=1;jettySize=auto;html=1;entryX=0.5;entryY=1;entryDx=0;entryDy=0;" parent="1" source="NBFTY5YNdQ-I9GaCww9j-24" target="NBFTY5YNdQ-I9GaCww9j-19" edge="1">
          <mxGeometry relative="1" as="geometry">
            <mxPoint x="1320" y="230" as="targetPoint" />
          </mxGeometry>
        </mxCell>
        <mxCell id="NBFTY5YNdQ-I9GaCww9j-40" value="Success Events" style="edgeLabel;html=1;align=center;verticalAlign=middle;resizable=0;points=[];" parent="NBFTY5YNdQ-I9GaCww9j-29" vertex="1" connectable="0">
          <mxGeometry x="-0.3706" y="-3" relative="1" as="geometry">
            <mxPoint as="offset" />
          </mxGeometry>
        </mxCell>
        <mxCell id="NBFTY5YNdQ-I9GaCww9j-24" value="Success Queue" style="sketch=0;aspect=fixed;pointerEvents=1;shadow=0;dashed=0;html=1;strokeColor=none;labelPosition=center;verticalLabelPosition=bottom;verticalAlign=top;align=center;fillColor=#00188D;shape=mxgraph.azure.queue_generic" parent="1" vertex="1">
          <mxGeometry x="1060" y="272.5" width="133.33" height="40" as="geometry" />
        </mxCell>
        <mxCell id="NBFTY5YNdQ-I9GaCww9j-27" style="edgeStyle=orthogonalEdgeStyle;rounded=0;orthogonalLoop=1;jettySize=auto;html=1;entryX=1;entryY=0.51;entryDx=0;entryDy=0;entryPerimeter=0;exitX=0.25;exitY=0;exitDx=0;exitDy=0;" parent="1" source="NBFTY5YNdQ-I9GaCww9j-19" target="NBFTY5YNdQ-I9GaCww9j-16" edge="1">
          <mxGeometry relative="1" as="geometry" />
        </mxCell>
        <mxCell id="NBFTY5YNdQ-I9GaCww9j-36" value="Assign Worker&lt;div&gt;According to Priority &amp;amp; Task&lt;/div&gt;" style="edgeLabel;html=1;align=center;verticalAlign=middle;resizable=0;points=[];" parent="NBFTY5YNdQ-I9GaCww9j-27" vertex="1" connectable="0">
          <mxGeometry x="0.1087" y="1" relative="1" as="geometry">
            <mxPoint x="-14" y="-1" as="offset" />
          </mxGeometry>
        </mxCell>
        <mxCell id="NBFTY5YNdQ-I9GaCww9j-28" style="edgeStyle=orthogonalEdgeStyle;rounded=0;orthogonalLoop=1;jettySize=auto;html=1;entryX=0;entryY=0.5;entryDx=0;entryDy=0;exitX=1;exitY=0.51;exitDx=0;exitDy=0;exitPerimeter=0;" parent="1" source="NBFTY5YNdQ-I9GaCww9j-17" target="NBFTY5YNdQ-I9GaCww9j-19" edge="1">
          <mxGeometry relative="1" as="geometry">
            <mxPoint x="1300" y="230" as="targetPoint" />
            <Array as="points">
              <mxPoint x="1193" y="200" />
            </Array>
          </mxGeometry>
        </mxCell>
        <mxCell id="NBFTY5YNdQ-I9GaCww9j-39" value="Failure events" style="edgeLabel;html=1;align=center;verticalAlign=middle;resizable=0;points=[];" parent="NBFTY5YNdQ-I9GaCww9j-28" vertex="1" connectable="0">
          <mxGeometry x="-0.0662" y="-3" relative="1" as="geometry">
            <mxPoint x="5" y="-3" as="offset" />
          </mxGeometry>
        </mxCell>
        <mxCell id="NBFTY5YNdQ-I9GaCww9j-33" style="edgeStyle=orthogonalEdgeStyle;rounded=0;orthogonalLoop=1;jettySize=auto;html=1;entryX=0.5;entryY=1;entryDx=0;entryDy=0;" parent="1" source="NBFTY5YNdQ-I9GaCww9j-30" target="NBFTY5YNdQ-I9GaCww9j-9" edge="1">
          <mxGeometry relative="1" as="geometry" />
        </mxCell>
        <mxCell id="NBFTY5YNdQ-I9GaCww9j-30" value="Completion Queue" style="sketch=0;aspect=fixed;pointerEvents=1;shadow=0;dashed=0;html=1;strokeColor=none;labelPosition=center;verticalLabelPosition=bottom;verticalAlign=top;align=center;fillColor=#00188D;shape=mxgraph.azure.queue_generic" parent="1" vertex="1">
          <mxGeometry x="1060" y="362.5" width="133.33" height="40" as="geometry" />
        </mxCell>
        <mxCell id="NBFTY5YNdQ-I9GaCww9j-34" style="edgeStyle=orthogonalEdgeStyle;rounded=0;orthogonalLoop=1;jettySize=auto;html=1;entryX=1;entryY=0.51;entryDx=0;entryDy=0;entryPerimeter=0;exitX=0.75;exitY=1;exitDx=0;exitDy=0;" parent="1" source="NBFTY5YNdQ-I9GaCww9j-19" target="NBFTY5YNdQ-I9GaCww9j-30" edge="1">
          <mxGeometry relative="1" as="geometry" />
        </mxCell>
        <mxCell id="NBFTY5YNdQ-I9GaCww9j-41" value="Completion Events" style="edgeLabel;html=1;align=center;verticalAlign=middle;resizable=0;points=[];" parent="NBFTY5YNdQ-I9GaCww9j-34" vertex="1" connectable="0">
          <mxGeometry x="0.5113" y="4" relative="1" as="geometry">
            <mxPoint as="offset" />
          </mxGeometry>
        </mxCell>
        <mxCell id="NBFTY5YNdQ-I9GaCww9j-65" value="" style="group" parent="1" vertex="1" connectable="0">
          <mxGeometry x="1260" y="550" width="100" height="113" as="geometry" />
        </mxCell>
        <mxCell id="NBFTY5YNdQ-I9GaCww9j-55" value="" style="outlineConnect=0;dashed=0;verticalLabelPosition=bottom;verticalAlign=top;align=center;html=1;shape=mxgraph.aws3.instance;fillColor=#F58534;gradientColor=none;" parent="NBFTY5YNdQ-I9GaCww9j-65" vertex="1">
          <mxGeometry width="60" height="63" as="geometry" />
        </mxCell>
        <mxCell id="NBFTY5YNdQ-I9GaCww9j-56" value="" style="outlineConnect=0;dashed=0;verticalLabelPosition=bottom;verticalAlign=top;align=center;html=1;shape=mxgraph.aws3.instance;fillColor=#F58534;gradientColor=none;" parent="NBFTY5YNdQ-I9GaCww9j-65" vertex="1">
          <mxGeometry x="10" y="10" width="60" height="63" as="geometry" />
        </mxCell>
        <mxCell id="NBFTY5YNdQ-I9GaCww9j-57" value="" style="outlineConnect=0;dashed=0;verticalLabelPosition=bottom;verticalAlign=top;align=center;html=1;shape=mxgraph.aws3.instance;fillColor=#F58534;gradientColor=none;" parent="NBFTY5YNdQ-I9GaCww9j-65" vertex="1">
          <mxGeometry x="20" y="20" width="60" height="63" as="geometry" />
        </mxCell>
        <mxCell id="NBFTY5YNdQ-I9GaCww9j-58" value="Audio Extractor" style="text;strokeColor=none;align=center;fillColor=none;html=1;verticalAlign=middle;whiteSpace=wrap;rounded=0;" parent="NBFTY5YNdQ-I9GaCww9j-65" vertex="1">
          <mxGeometry y="83" width="100" height="30" as="geometry" />
        </mxCell>
        <mxCell id="NBFTY5YNdQ-I9GaCww9j-89" value="" style="group" parent="1" vertex="1" connectable="0">
          <mxGeometry x="850" y="550" width="100" height="113" as="geometry" />
        </mxCell>
        <mxCell id="NBFTY5YNdQ-I9GaCww9j-90" value="" style="outlineConnect=0;dashed=0;verticalLabelPosition=bottom;verticalAlign=top;align=center;html=1;shape=mxgraph.aws3.instance;fillColor=#F58534;gradientColor=none;" parent="NBFTY5YNdQ-I9GaCww9j-89" vertex="1">
          <mxGeometry x="10" width="60" height="63" as="geometry" />
        </mxCell>
        <mxCell id="NBFTY5YNdQ-I9GaCww9j-91" value="" style="outlineConnect=0;dashed=0;verticalLabelPosition=bottom;verticalAlign=top;align=center;html=1;shape=mxgraph.aws3.instance;fillColor=#F58534;gradientColor=none;" parent="NBFTY5YNdQ-I9GaCww9j-89" vertex="1">
          <mxGeometry x="20" y="10" width="60" height="63" as="geometry" />
        </mxCell>
        <mxCell id="NBFTY5YNdQ-I9GaCww9j-92" value="" style="outlineConnect=0;dashed=0;verticalLabelPosition=bottom;verticalAlign=top;align=center;html=1;shape=mxgraph.aws3.instance;fillColor=#F58534;gradientColor=none;" parent="NBFTY5YNdQ-I9GaCww9j-89" vertex="1">
          <mxGeometry x="30" y="20" width="60" height="63" as="geometry" />
        </mxCell>
        <mxCell id="NBFTY5YNdQ-I9GaCww9j-93" value="360p Encoder" style="text;strokeColor=none;align=center;fillColor=none;html=1;verticalAlign=middle;whiteSpace=wrap;rounded=0;" parent="NBFTY5YNdQ-I9GaCww9j-89" vertex="1">
          <mxGeometry y="83" width="100" height="30" as="geometry" />
        </mxCell>
        <mxCell id="NBFTY5YNdQ-I9GaCww9j-96" value="" style="group" parent="1" vertex="1" connectable="0">
          <mxGeometry x="980" y="550" width="100" height="113" as="geometry" />
        </mxCell>
        <mxCell id="NBFTY5YNdQ-I9GaCww9j-97" value="" style="outlineConnect=0;dashed=0;verticalLabelPosition=bottom;verticalAlign=top;align=center;html=1;shape=mxgraph.aws3.instance;fillColor=#F58534;gradientColor=none;" parent="NBFTY5YNdQ-I9GaCww9j-96" vertex="1">
          <mxGeometry x="10" width="60" height="63" as="geometry" />
        </mxCell>
        <mxCell id="NBFTY5YNdQ-I9GaCww9j-98" value="" style="outlineConnect=0;dashed=0;verticalLabelPosition=bottom;verticalAlign=top;align=center;html=1;shape=mxgraph.aws3.instance;fillColor=#F58534;gradientColor=none;" parent="NBFTY5YNdQ-I9GaCww9j-96" vertex="1">
          <mxGeometry x="20" y="10" width="60" height="63" as="geometry" />
        </mxCell>
        <mxCell id="NBFTY5YNdQ-I9GaCww9j-99" value="" style="outlineConnect=0;dashed=0;verticalLabelPosition=bottom;verticalAlign=top;align=center;html=1;shape=mxgraph.aws3.instance;fillColor=#F58534;gradientColor=none;" parent="NBFTY5YNdQ-I9GaCww9j-96" vertex="1">
          <mxGeometry x="30" y="20" width="60" height="63" as="geometry" />
        </mxCell>
        <mxCell id="NBFTY5YNdQ-I9GaCww9j-100" value="480p Encoder" style="text;strokeColor=none;align=center;fillColor=none;html=1;verticalAlign=middle;whiteSpace=wrap;rounded=0;" parent="NBFTY5YNdQ-I9GaCww9j-96" vertex="1">
          <mxGeometry y="83" width="100" height="30" as="geometry" />
        </mxCell>
        <mxCell id="NBFTY5YNdQ-I9GaCww9j-101" value="" style="group" parent="1" vertex="1" connectable="0">
          <mxGeometry x="850" y="680" width="100" height="113" as="geometry" />
        </mxCell>
        <mxCell id="NBFTY5YNdQ-I9GaCww9j-102" value="" style="outlineConnect=0;dashed=0;verticalLabelPosition=bottom;verticalAlign=top;align=center;html=1;shape=mxgraph.aws3.instance;fillColor=#F58534;gradientColor=none;" parent="NBFTY5YNdQ-I9GaCww9j-101" vertex="1">
          <mxGeometry x="10" width="60" height="63" as="geometry" />
        </mxCell>
        <mxCell id="NBFTY5YNdQ-I9GaCww9j-103" value="" style="outlineConnect=0;dashed=0;verticalLabelPosition=bottom;verticalAlign=top;align=center;html=1;shape=mxgraph.aws3.instance;fillColor=#F58534;gradientColor=none;" parent="NBFTY5YNdQ-I9GaCww9j-101" vertex="1">
          <mxGeometry x="20" y="10" width="60" height="63" as="geometry" />
        </mxCell>
        <mxCell id="NBFTY5YNdQ-I9GaCww9j-104" value="" style="outlineConnect=0;dashed=0;verticalLabelPosition=bottom;verticalAlign=top;align=center;html=1;shape=mxgraph.aws3.instance;fillColor=#F58534;gradientColor=none;" parent="NBFTY5YNdQ-I9GaCww9j-101" vertex="1">
          <mxGeometry x="30" y="20" width="60" height="63" as="geometry" />
        </mxCell>
        <mxCell id="NBFTY5YNdQ-I9GaCww9j-105" value="720p Encoder" style="text;strokeColor=none;align=center;fillColor=none;html=1;verticalAlign=middle;whiteSpace=wrap;rounded=0;" parent="NBFTY5YNdQ-I9GaCww9j-101" vertex="1">
          <mxGeometry y="83" width="100" height="30" as="geometry" />
        </mxCell>
        <mxCell id="NBFTY5YNdQ-I9GaCww9j-106" value="" style="group" parent="1" vertex="1" connectable="0">
          <mxGeometry x="980" y="680" width="100" height="113" as="geometry" />
        </mxCell>
        <mxCell id="NBFTY5YNdQ-I9GaCww9j-107" value="" style="outlineConnect=0;dashed=0;verticalLabelPosition=bottom;verticalAlign=top;align=center;html=1;shape=mxgraph.aws3.instance;fillColor=#F58534;gradientColor=none;" parent="NBFTY5YNdQ-I9GaCww9j-106" vertex="1">
          <mxGeometry x="10" width="60" height="63" as="geometry" />
        </mxCell>
        <mxCell id="NBFTY5YNdQ-I9GaCww9j-108" value="" style="outlineConnect=0;dashed=0;verticalLabelPosition=bottom;verticalAlign=top;align=center;html=1;shape=mxgraph.aws3.instance;fillColor=#F58534;gradientColor=none;" parent="NBFTY5YNdQ-I9GaCww9j-106" vertex="1">
          <mxGeometry x="20" y="10" width="60" height="63" as="geometry" />
        </mxCell>
        <mxCell id="NBFTY5YNdQ-I9GaCww9j-109" value="" style="outlineConnect=0;dashed=0;verticalLabelPosition=bottom;verticalAlign=top;align=center;html=1;shape=mxgraph.aws3.instance;fillColor=#F58534;gradientColor=none;" parent="NBFTY5YNdQ-I9GaCww9j-106" vertex="1">
          <mxGeometry x="30" y="20" width="60" height="63" as="geometry" />
        </mxCell>
        <mxCell id="NBFTY5YNdQ-I9GaCww9j-110" value="1080p Encoder" style="text;strokeColor=none;align=center;fillColor=none;html=1;verticalAlign=middle;whiteSpace=wrap;rounded=0;" parent="NBFTY5YNdQ-I9GaCww9j-106" vertex="1">
          <mxGeometry y="83" width="100" height="30" as="geometry" />
        </mxCell>
        <mxCell id="NBFTY5YNdQ-I9GaCww9j-116" value="" style="group" parent="1" vertex="1" connectable="0">
          <mxGeometry x="1133.34" y="803" width="100" height="113" as="geometry" />
        </mxCell>
        <mxCell id="NBFTY5YNdQ-I9GaCww9j-117" value="" style="outlineConnect=0;dashed=0;verticalLabelPosition=bottom;verticalAlign=top;align=center;html=1;shape=mxgraph.aws3.instance;fillColor=#F58534;gradientColor=none;" parent="NBFTY5YNdQ-I9GaCww9j-116" vertex="1">
          <mxGeometry x="10" width="60" height="63" as="geometry" />
        </mxCell>
        <mxCell id="NBFTY5YNdQ-I9GaCww9j-118" value="" style="outlineConnect=0;dashed=0;verticalLabelPosition=bottom;verticalAlign=top;align=center;html=1;shape=mxgraph.aws3.instance;fillColor=#F58534;gradientColor=none;" parent="NBFTY5YNdQ-I9GaCww9j-116" vertex="1">
          <mxGeometry x="20" y="10" width="60" height="63" as="geometry" />
        </mxCell>
        <mxCell id="NBFTY5YNdQ-I9GaCww9j-119" value="" style="outlineConnect=0;dashed=0;verticalLabelPosition=bottom;verticalAlign=top;align=center;html=1;shape=mxgraph.aws3.instance;fillColor=#F58534;gradientColor=none;" parent="NBFTY5YNdQ-I9GaCww9j-116" vertex="1">
          <mxGeometry x="30" y="20" width="60" height="63" as="geometry" />
        </mxCell>
        <mxCell id="NBFTY5YNdQ-I9GaCww9j-120" value="Thumnail Generator" style="text;strokeColor=none;align=center;fillColor=none;html=1;verticalAlign=middle;whiteSpace=wrap;rounded=0;" parent="NBFTY5YNdQ-I9GaCww9j-116" vertex="1">
          <mxGeometry y="83" width="100" height="30" as="geometry" />
        </mxCell>
        <mxCell id="pwQmf8iL3hCYE9_n5Uv4-11" value="" style="edgeStyle=orthogonalEdgeStyle;rounded=0;orthogonalLoop=1;jettySize=auto;html=1;" edge="1" parent="1" source="pwQmf8iL3hCYE9_n5Uv4-9" target="NBFTY5YNdQ-I9GaCww9j-9">
          <mxGeometry relative="1" as="geometry" />
        </mxCell>
        <mxCell id="pwQmf8iL3hCYE9_n5Uv4-9" value="Preprocessing Queue" style="sketch=0;aspect=fixed;pointerEvents=1;shadow=0;dashed=0;html=1;strokeColor=none;labelPosition=center;verticalLabelPosition=bottom;verticalAlign=top;align=center;fillColor=#00188D;shape=mxgraph.azure.queue_generic" vertex="1" parent="1">
          <mxGeometry x="630" y="180" width="133.33" height="40" as="geometry" />
        </mxCell>
        <mxCell id="pwQmf8iL3hCYE9_n5Uv4-14" style="edgeStyle=orthogonalEdgeStyle;rounded=0;orthogonalLoop=1;jettySize=auto;html=1;entryX=0;entryY=0.5;entryDx=0;entryDy=0;entryPerimeter=0;" edge="1" parent="1" source="pwQmf8iL3hCYE9_n5Uv4-8" target="NBFTY5YNdQ-I9GaCww9j-17">
          <mxGeometry relative="1" as="geometry">
            <mxPoint x="1030" y="520" as="sourcePoint" />
            <Array as="points">
              <mxPoint x="1030" y="203" />
            </Array>
          </mxGeometry>
        </mxCell>
        <mxCell id="pwQmf8iL3hCYE9_n5Uv4-15" style="edgeStyle=orthogonalEdgeStyle;rounded=0;orthogonalLoop=1;jettySize=auto;html=1;entryX=0;entryY=0.5;entryDx=0;entryDy=0;entryPerimeter=0;" edge="1" parent="1" source="pwQmf8iL3hCYE9_n5Uv4-8" target="NBFTY5YNdQ-I9GaCww9j-24">
          <mxGeometry relative="1" as="geometry">
            <Array as="points">
              <mxPoint x="1043" y="292" />
            </Array>
          </mxGeometry>
        </mxCell>
        <mxCell id="pwQmf8iL3hCYE9_n5Uv4-16" value="&lt;font color=&quot;#ffffff&quot;&gt;Original Video Store&lt;/font&gt;" style="sketch=0;outlineConnect=0;fontColor=#232F3E;gradientColor=none;fillColor=#7AA116;strokeColor=none;dashed=0;verticalLabelPosition=bottom;verticalAlign=top;align=center;html=1;fontSize=12;fontStyle=0;aspect=fixed;pointerEvents=1;shape=mxgraph.aws4.bucket;" vertex="1" parent="1">
          <mxGeometry x="82.5" y="343.5" width="75" height="78" as="geometry" />
        </mxCell>
        <mxCell id="pwQmf8iL3hCYE9_n5Uv4-8" value="" style="swimlane;startSize=0;" vertex="1" parent="1">
          <mxGeometry x="820" y="531.5" width="820" height="438.5" as="geometry" />
        </mxCell>
        <mxCell id="NBFTY5YNdQ-I9GaCww9j-126" value="" style="group" parent="pwQmf8iL3hCYE9_n5Uv4-8" vertex="1" connectable="0">
          <mxGeometry x="440" y="143.5" width="100" height="113" as="geometry" />
        </mxCell>
        <mxCell id="NBFTY5YNdQ-I9GaCww9j-127" value="" style="outlineConnect=0;dashed=0;verticalLabelPosition=bottom;verticalAlign=top;align=center;html=1;shape=mxgraph.aws3.instance;fillColor=#F58534;gradientColor=none;" parent="NBFTY5YNdQ-I9GaCww9j-126" vertex="1">
          <mxGeometry width="60" height="63" as="geometry" />
        </mxCell>
        <mxCell id="NBFTY5YNdQ-I9GaCww9j-128" value="" style="outlineConnect=0;dashed=0;verticalLabelPosition=bottom;verticalAlign=top;align=center;html=1;shape=mxgraph.aws3.instance;fillColor=#F58534;gradientColor=none;" parent="NBFTY5YNdQ-I9GaCww9j-126" vertex="1">
          <mxGeometry x="10" y="10" width="60" height="63" as="geometry" />
        </mxCell>
        <mxCell id="NBFTY5YNdQ-I9GaCww9j-129" value="" style="outlineConnect=0;dashed=0;verticalLabelPosition=bottom;verticalAlign=top;align=center;html=1;shape=mxgraph.aws3.instance;fillColor=#F58534;gradientColor=none;" parent="NBFTY5YNdQ-I9GaCww9j-126" vertex="1">
          <mxGeometry x="20" y="20" width="60" height="63" as="geometry" />
        </mxCell>
        <mxCell id="NBFTY5YNdQ-I9GaCww9j-130" value="Audio Encoder" style="text;strokeColor=none;align=center;fillColor=none;html=1;verticalAlign=middle;whiteSpace=wrap;rounded=0;" parent="NBFTY5YNdQ-I9GaCww9j-126" vertex="1">
          <mxGeometry y="83" width="100" height="30" as="geometry" />
        </mxCell>
        <mxCell id="NBFTY5YNdQ-I9GaCww9j-66" value="" style="group" parent="pwQmf8iL3hCYE9_n5Uv4-8" vertex="1" connectable="0">
          <mxGeometry x="540" y="18.5" width="206.66000000000008" height="500" as="geometry" />
        </mxCell>
        <mxCell id="NBFTY5YNdQ-I9GaCww9j-59" value="" style="outlineConnect=0;dashed=0;verticalLabelPosition=bottom;verticalAlign=top;align=center;html=1;shape=mxgraph.aws3.instance;fillColor=#F58534;gradientColor=none;" parent="NBFTY5YNdQ-I9GaCww9j-66" vertex="1">
          <mxGeometry x="10" width="60" height="63" as="geometry" />
        </mxCell>
        <mxCell id="NBFTY5YNdQ-I9GaCww9j-60" value="" style="outlineConnect=0;dashed=0;verticalLabelPosition=bottom;verticalAlign=top;align=center;html=1;shape=mxgraph.aws3.instance;fillColor=#F58534;gradientColor=none;" parent="NBFTY5YNdQ-I9GaCww9j-66" vertex="1">
          <mxGeometry x="20" y="10" width="60" height="63" as="geometry" />
        </mxCell>
        <mxCell id="NBFTY5YNdQ-I9GaCww9j-61" value="" style="outlineConnect=0;dashed=0;verticalLabelPosition=bottom;verticalAlign=top;align=center;html=1;shape=mxgraph.aws3.instance;fillColor=#F58534;gradientColor=none;" parent="NBFTY5YNdQ-I9GaCww9j-66" vertex="1">
          <mxGeometry x="30" y="20" width="60" height="63" as="geometry" />
        </mxCell>
        <mxCell id="NBFTY5YNdQ-I9GaCww9j-62" value="Metadata Extractor" style="text;strokeColor=none;align=center;fillColor=none;html=1;verticalAlign=middle;whiteSpace=wrap;rounded=0;" parent="NBFTY5YNdQ-I9GaCww9j-66" vertex="1">
          <mxGeometry y="83" width="100" height="30" as="geometry" />
        </mxCell>
        <mxCell id="pwQmf8iL3hCYE9_n5Uv4-3" value="" style="group" vertex="1" connectable="0" parent="pwQmf8iL3hCYE9_n5Uv4-8">
          <mxGeometry x="330" y="18.5" width="100" height="113" as="geometry" />
        </mxCell>
        <mxCell id="pwQmf8iL3hCYE9_n5Uv4-4" value="" style="outlineConnect=0;dashed=0;verticalLabelPosition=bottom;verticalAlign=top;align=center;html=1;shape=mxgraph.aws3.instance;fillColor=#F58534;gradientColor=none;" vertex="1" parent="pwQmf8iL3hCYE9_n5Uv4-3">
          <mxGeometry width="60" height="63" as="geometry" />
        </mxCell>
        <mxCell id="pwQmf8iL3hCYE9_n5Uv4-5" value="" style="outlineConnect=0;dashed=0;verticalLabelPosition=bottom;verticalAlign=top;align=center;html=1;shape=mxgraph.aws3.instance;fillColor=#F58534;gradientColor=none;" vertex="1" parent="pwQmf8iL3hCYE9_n5Uv4-3">
          <mxGeometry x="10" y="10" width="60" height="63" as="geometry" />
        </mxCell>
        <mxCell id="pwQmf8iL3hCYE9_n5Uv4-6" value="" style="outlineConnect=0;dashed=0;verticalLabelPosition=bottom;verticalAlign=top;align=center;html=1;shape=mxgraph.aws3.instance;fillColor=#F58534;gradientColor=none;" vertex="1" parent="pwQmf8iL3hCYE9_n5Uv4-3">
          <mxGeometry x="20" y="20" width="60" height="63" as="geometry" />
        </mxCell>
        <mxCell id="pwQmf8iL3hCYE9_n5Uv4-7" value="Video Extractor" style="text;strokeColor=none;align=center;fillColor=none;html=1;verticalAlign=middle;whiteSpace=wrap;rounded=0;" vertex="1" parent="pwQmf8iL3hCYE9_n5Uv4-3">
          <mxGeometry y="83" width="100" height="30" as="geometry" />
        </mxCell>
        <mxCell id="NBFTY5YNdQ-I9GaCww9j-72" value="" style="group" parent="pwQmf8iL3hCYE9_n5Uv4-8" vertex="1" connectable="0">
          <mxGeometry x="323.3299999999999" y="143.5" width="100" height="113" as="geometry" />
        </mxCell>
        <mxCell id="NBFTY5YNdQ-I9GaCww9j-73" value="" style="outlineConnect=0;dashed=0;verticalLabelPosition=bottom;verticalAlign=top;align=center;html=1;shape=mxgraph.aws3.instance;fillColor=#F58534;gradientColor=none;" parent="NBFTY5YNdQ-I9GaCww9j-72" vertex="1">
          <mxGeometry x="10" width="60" height="63" as="geometry" />
        </mxCell>
        <mxCell id="NBFTY5YNdQ-I9GaCww9j-74" value="" style="outlineConnect=0;dashed=0;verticalLabelPosition=bottom;verticalAlign=top;align=center;html=1;shape=mxgraph.aws3.instance;fillColor=#F58534;gradientColor=none;" parent="NBFTY5YNdQ-I9GaCww9j-72" vertex="1">
          <mxGeometry x="20" y="10" width="60" height="63" as="geometry" />
        </mxCell>
        <mxCell id="NBFTY5YNdQ-I9GaCww9j-75" value="" style="outlineConnect=0;dashed=0;verticalLabelPosition=bottom;verticalAlign=top;align=center;html=1;shape=mxgraph.aws3.instance;fillColor=#F58534;gradientColor=none;" parent="NBFTY5YNdQ-I9GaCww9j-72" vertex="1">
          <mxGeometry x="30" y="20" width="60" height="63" as="geometry" />
        </mxCell>
        <mxCell id="NBFTY5YNdQ-I9GaCww9j-76" value="Video Transcoder" style="text;strokeColor=none;align=center;fillColor=none;html=1;verticalAlign=middle;whiteSpace=wrap;rounded=0;" parent="NBFTY5YNdQ-I9GaCww9j-72" vertex="1">
          <mxGeometry y="83" width="100" height="30" as="geometry" />
        </mxCell>
        <mxCell id="NBFTY5YNdQ-I9GaCww9j-111" value="" style="group" parent="pwQmf8iL3hCYE9_n5Uv4-8" vertex="1" connectable="0">
          <mxGeometry x="40" y="278.5" width="100" height="113" as="geometry" />
        </mxCell>
        <mxCell id="NBFTY5YNdQ-I9GaCww9j-112" value="" style="outlineConnect=0;dashed=0;verticalLabelPosition=bottom;verticalAlign=top;align=center;html=1;shape=mxgraph.aws3.instance;fillColor=#F58534;gradientColor=none;" parent="NBFTY5YNdQ-I9GaCww9j-111" vertex="1">
          <mxGeometry x="10" width="60" height="63" as="geometry" />
        </mxCell>
        <mxCell id="NBFTY5YNdQ-I9GaCww9j-113" value="" style="outlineConnect=0;dashed=0;verticalLabelPosition=bottom;verticalAlign=top;align=center;html=1;shape=mxgraph.aws3.instance;fillColor=#F58534;gradientColor=none;" parent="NBFTY5YNdQ-I9GaCww9j-111" vertex="1">
          <mxGeometry x="20" y="10" width="60" height="63" as="geometry" />
        </mxCell>
        <mxCell id="NBFTY5YNdQ-I9GaCww9j-114" value="" style="outlineConnect=0;dashed=0;verticalLabelPosition=bottom;verticalAlign=top;align=center;html=1;shape=mxgraph.aws3.instance;fillColor=#F58534;gradientColor=none;" parent="NBFTY5YNdQ-I9GaCww9j-111" vertex="1">
          <mxGeometry x="30" y="20" width="60" height="63" as="geometry" />
        </mxCell>
        <mxCell id="NBFTY5YNdQ-I9GaCww9j-115" value="ASCII Encoder" style="text;strokeColor=none;align=center;fillColor=none;html=1;verticalAlign=middle;whiteSpace=wrap;rounded=0;" parent="NBFTY5YNdQ-I9GaCww9j-111" vertex="1">
          <mxGeometry y="83" width="100" height="30" as="geometry" />
        </mxCell>
        <mxCell id="pwQmf8iL3hCYE9_n5Uv4-19" value="" style="group" vertex="1" connectable="0" parent="pwQmf8iL3hCYE9_n5Uv4-8">
          <mxGeometry x="700" y="18.5" width="100" height="113" as="geometry" />
        </mxCell>
        <mxCell id="pwQmf8iL3hCYE9_n5Uv4-20" value="" style="outlineConnect=0;dashed=0;verticalLabelPosition=bottom;verticalAlign=top;align=center;html=1;shape=mxgraph.aws3.instance;fillColor=#F58534;gradientColor=none;" vertex="1" parent="pwQmf8iL3hCYE9_n5Uv4-19">
          <mxGeometry width="60" height="63" as="geometry" />
        </mxCell>
        <mxCell id="pwQmf8iL3hCYE9_n5Uv4-21" value="" style="outlineConnect=0;dashed=0;verticalLabelPosition=bottom;verticalAlign=top;align=center;html=1;shape=mxgraph.aws3.instance;fillColor=#F58534;gradientColor=none;" vertex="1" parent="pwQmf8iL3hCYE9_n5Uv4-19">
          <mxGeometry x="10" y="10" width="60" height="63" as="geometry" />
        </mxCell>
        <mxCell id="pwQmf8iL3hCYE9_n5Uv4-22" value="" style="outlineConnect=0;dashed=0;verticalLabelPosition=bottom;verticalAlign=top;align=center;html=1;shape=mxgraph.aws3.instance;fillColor=#F58534;gradientColor=none;" vertex="1" parent="pwQmf8iL3hCYE9_n5Uv4-19">
          <mxGeometry x="20" y="20" width="60" height="63" as="geometry" />
        </mxCell>
        <mxCell id="pwQmf8iL3hCYE9_n5Uv4-23" value="Merger" style="text;strokeColor=none;align=center;fillColor=none;html=1;verticalAlign=middle;whiteSpace=wrap;rounded=0;" vertex="1" parent="pwQmf8iL3hCYE9_n5Uv4-19">
          <mxGeometry y="83" width="100" height="30" as="geometry" />
        </mxCell>
      </root>
    </mxGraphModel>
  </diagram>
</mxfile>
